<mxfile host="app.diagrams.net" agent="Mozilla/5.0 (Windows NT 10.0; Win64; x64) AppleWebKit/537.36 (KHTML, like Gecko) Chrome/138.0.0.0 Safari/537.36" version="28.0.7">
  <diagram name="Page-1" id="297b7KXq3lAl_GIhjUhM">
    <mxGraphModel dx="1752" dy="1092" grid="1" gridSize="10" guides="1" tooltips="1" connect="1" arrows="1" fold="1" page="1" pageScale="1" pageWidth="1100" pageHeight="850" math="0" shadow="0">
      <root>
        <mxCell id="0" />
        <mxCell id="1" parent="0" />
        <mxCell id="YZUv1WwHt2hlqMaALwlN-1" value="&#xa;  &#xa;    &#xa;      &#xa;        &#xa;        &#xa;        &#xa;    &#xa;      &#xa;    &#xa;    &#xa;&#xa;    &#xa;      &#xa;    &#xa;    &#xa;&#xa;    &#xa;      &#xa;    &#xa;    &#xa;&#xa;    &#xa;      &#xa;    &#xa;    &#xa;&#xa;    &#xa;      &#xa;    &#xa;    &#xa;&#xa;    &#xa;      &#xa;    &#xa;    &#xa;&#xa;    &#xa;      &#xa;    &#xa;    &#xa;&#xa;    &#xa;      &#xa;    &#xa;    &#xa;&#xa;    &#xa;      &#xa;    &#xa;    &#xa;&#xa;    &#xa;      &#xa;    &#xa;    &#xa;&#xa;    &#xa;      &#xa;    &#xa;    &#xa;&#xa;    &#xa;      &#xa;    &#xa;    &#xa;&#xa;    &#xa;      &#xa;    &#xa;    &#xa;&#xa;    &#xa;      &#xa;    &#xa;    &#xa;&#xa;    &#xa;      &#xa;    &#xa;    &#xa;&#xa;    &#xa;      &#xa;    &#xa;    &#xa;&#xa;    &#xa;      &#xa;    &#xa;    &#xa;&#xa;    &#xa;      &#xa;    &#xa;    &#xa;&#xa;    &#xa;      &#xa;    &#xa;    &#xa;&#xa;    &#xa;      &#xa;    &#xa;    &#xa;&#xa;    &#xa;      &#xa;    &#xa;    &#xa;&#xa;    &#xa;      &#xa;    &#xa;    &#xa;&#xa;    &#xa;      &#xa;    &#xa;    &#xa;&#xa;    &#xa;      &#xa;    &#xa;    &#xa;&#xa;    &#xa;      &#xa;    &#xa;    &#xa;&#xa;    &#xa;      &#xa;    &#xa;    &#xa;&#xa;    &#xa;      &#xa;    &#xa;    &#xa;        &#xa;    &#xa;      &#xa;    &#xa;    &#xa;&#xa;    &#xa;      &#xa;    &#xa;    &#xa;&#xa;    &#xa;      &#xa;    &#xa;    &#xa;&#xa;    &#xa;      &#xa;    &#xa;    &#xa;&#xa;    &#xa;      &#xa;    &#xa;    &#xa;&#xa;    &#xa;      &#xa;    &#xa;    &#xa;&#xa;    &#xa;      &#xa;    &#xa;    &#xa;&#xa;    &#xa;      &#xa;    &#xa;    &#xa;&#xa;    &#xa;      &#xa;    &#xa;    &#xa;&#xa;    &#xa;      &#xa;    &#xa;    &#xa;&#xa;    &#xa;      &#xa;    &#xa;    &#xa;&#xa;    &#xa;      &#xa;    &#xa;    &#xa;&#xa;    &#xa;      &#xa;    &#xa;    &#xa;&#xa;    &#xa;      &#xa;    &#xa;    &#xa;&#xa;    &#xa;      &#xa;    &#xa;    &#xa;&#xa;    &#xa;      &#xa;    &#xa;    &#xa;&#xa;    &#xa;      &#xa;    &#xa;    &#xa;&#xa;    &#xa;      &#xa;    &#xa;    &#xa;&#xa;    &#xa;      &#xa;    &#xa;    &#xa;&#xa;    &#xa;      &#xa;    &#xa;    &#xa;&#xa;    &#xa;      &#xa;    &#xa;    &#xa;&#xa;    &#xa;      &#xa;    &#xa;    &#xa;&#xa;    &#xa;      &#xa;    &#xa;    &#xa;      &#xa;    &#xa;  &#xa;" style="text;whiteSpace=wrap;html=1;" parent="1" vertex="1">
          <mxGeometry width="30" height="3750" as="geometry" />
        </mxCell>
        <mxCell id="YZUv1WwHt2hlqMaALwlN-2" value="&#xa;  &#xa;    &#xa;      &#xa;        &#xa;        &#xa;        &#xa;    &#xa;      &#xa;    &#xa;    &#xa;&#xa;    &#xa;      &#xa;    &#xa;    &#xa;&#xa;    &#xa;      &#xa;    &#xa;    &#xa;&#xa;    &#xa;      &#xa;    &#xa;    &#xa;&#xa;    &#xa;      &#xa;    &#xa;    &#xa;&#xa;    &#xa;      &#xa;    &#xa;    &#xa;&#xa;    &#xa;      &#xa;    &#xa;    &#xa;&#xa;    &#xa;      &#xa;    &#xa;    &#xa;&#xa;    &#xa;      &#xa;    &#xa;    &#xa;&#xa;    &#xa;      &#xa;    &#xa;    &#xa;&#xa;    &#xa;      &#xa;    &#xa;    &#xa;&#xa;    &#xa;      &#xa;    &#xa;    &#xa;&#xa;    &#xa;      &#xa;    &#xa;    &#xa;&#xa;    &#xa;      &#xa;    &#xa;    &#xa;&#xa;    &#xa;      &#xa;    &#xa;    &#xa;&#xa;    &#xa;      &#xa;    &#xa;    &#xa;&#xa;    &#xa;      &#xa;    &#xa;    &#xa;&#xa;    &#xa;      &#xa;    &#xa;    &#xa;&#xa;    &#xa;      &#xa;    &#xa;    &#xa;&#xa;    &#xa;      &#xa;    &#xa;    &#xa;&#xa;    &#xa;      &#xa;    &#xa;    &#xa;&#xa;    &#xa;      &#xa;    &#xa;    &#xa;&#xa;    &#xa;      &#xa;    &#xa;    &#xa;&#xa;    &#xa;      &#xa;    &#xa;    &#xa;&#xa;    &#xa;      &#xa;    &#xa;    &#xa;&#xa;    &#xa;      &#xa;    &#xa;    &#xa;&#xa;    &#xa;      &#xa;    &#xa;    &#xa;        &#xa;    &#xa;      &#xa;    &#xa;    &#xa;&#xa;    &#xa;      &#xa;    &#xa;    &#xa;&#xa;    &#xa;      &#xa;    &#xa;    &#xa;&#xa;    &#xa;      &#xa;    &#xa;    &#xa;&#xa;    &#xa;      &#xa;    &#xa;    &#xa;&#xa;    &#xa;      &#xa;    &#xa;    &#xa;&#xa;    &#xa;      &#xa;    &#xa;    &#xa;&#xa;    &#xa;      &#xa;    &#xa;    &#xa;&#xa;    &#xa;      &#xa;    &#xa;    &#xa;&#xa;    &#xa;      &#xa;    &#xa;    &#xa;&#xa;    &#xa;      &#xa;    &#xa;    &#xa;&#xa;    &#xa;      &#xa;    &#xa;    &#xa;&#xa;    &#xa;      &#xa;    &#xa;    &#xa;&#xa;    &#xa;      &#xa;    &#xa;    &#xa;&#xa;    &#xa;      &#xa;    &#xa;    &#xa;&#xa;    &#xa;      &#xa;    &#xa;    &#xa;&#xa;    &#xa;      &#xa;    &#xa;    &#xa;&#xa;    &#xa;      &#xa;    &#xa;    &#xa;&#xa;    &#xa;      &#xa;    &#xa;    &#xa;&#xa;    &#xa;      &#xa;    &#xa;    &#xa;&#xa;    &#xa;      &#xa;    &#xa;    &#xa;&#xa;    &#xa;      &#xa;    &#xa;    &#xa;&#xa;    &#xa;      &#xa;    &#xa;    &#xa;      &#xa;    &#xa;  &#xa;" style="text;whiteSpace=wrap;html=1;" parent="1" vertex="1">
          <mxGeometry x="690" y="150" width="30" height="3750" as="geometry" />
        </mxCell>
        <mxCell id="YZUv1WwHt2hlqMaALwlN-3" value="&#xa;  &#xa;    &#xa;      &#xa;        &#xa;        &#xa;        &#xa;    &#xa;      &#xa;    &#xa;    &#xa;&#xa;    &#xa;      &#xa;    &#xa;    &#xa;&#xa;    &#xa;      &#xa;    &#xa;    &#xa;&#xa;    &#xa;      &#xa;    &#xa;    &#xa;&#xa;    &#xa;      &#xa;    &#xa;    &#xa;&#xa;    &#xa;      &#xa;    &#xa;    &#xa;&#xa;    &#xa;      &#xa;    &#xa;    &#xa;&#xa;    &#xa;      &#xa;    &#xa;    &#xa;&#xa;    &#xa;      &#xa;    &#xa;    &#xa;&#xa;    &#xa;      &#xa;    &#xa;    &#xa;&#xa;    &#xa;      &#xa;    &#xa;    &#xa;&#xa;    &#xa;      &#xa;    &#xa;    &#xa;&#xa;    &#xa;      &#xa;    &#xa;    &#xa;&#xa;    &#xa;      &#xa;    &#xa;    &#xa;&#xa;    &#xa;      &#xa;    &#xa;    &#xa;&#xa;    &#xa;      &#xa;    &#xa;    &#xa;&#xa;    &#xa;      &#xa;    &#xa;    &#xa;&#xa;    &#xa;      &#xa;    &#xa;    &#xa;&#xa;    &#xa;      &#xa;    &#xa;    &#xa;&#xa;    &#xa;      &#xa;    &#xa;    &#xa;&#xa;    &#xa;      &#xa;    &#xa;    &#xa;&#xa;    &#xa;      &#xa;    &#xa;    &#xa;&#xa;    &#xa;      &#xa;    &#xa;    &#xa;&#xa;    &#xa;      &#xa;    &#xa;    &#xa;&#xa;    &#xa;      &#xa;    &#xa;    &#xa;&#xa;    &#xa;      &#xa;    &#xa;    &#xa;&#xa;    &#xa;      &#xa;    &#xa;    &#xa;        &#xa;    &#xa;      &#xa;    &#xa;    &#xa;&#xa;    &#xa;      &#xa;    &#xa;    &#xa;&#xa;    &#xa;      &#xa;    &#xa;    &#xa;&#xa;    &#xa;      &#xa;    &#xa;    &#xa;&#xa;    &#xa;      &#xa;    &#xa;    &#xa;&#xa;    &#xa;      &#xa;    &#xa;    &#xa;&#xa;    &#xa;      &#xa;    &#xa;    &#xa;&#xa;    &#xa;      &#xa;    &#xa;    &#xa;&#xa;    &#xa;      &#xa;    &#xa;    &#xa;&#xa;    &#xa;      &#xa;    &#xa;    &#xa;&#xa;    &#xa;      &#xa;    &#xa;    &#xa;&#xa;    &#xa;      &#xa;    &#xa;    &#xa;&#xa;    &#xa;      &#xa;    &#xa;    &#xa;&#xa;    &#xa;      &#xa;    &#xa;    &#xa;&#xa;    &#xa;      &#xa;    &#xa;    &#xa;&#xa;    &#xa;      &#xa;    &#xa;    &#xa;&#xa;    &#xa;      &#xa;    &#xa;    &#xa;&#xa;    &#xa;      &#xa;    &#xa;    &#xa;&#xa;    &#xa;      &#xa;    &#xa;    &#xa;&#xa;    &#xa;      &#xa;    &#xa;    &#xa;&#xa;    &#xa;      &#xa;    &#xa;    &#xa;&#xa;    &#xa;      &#xa;    &#xa;    &#xa;&#xa;    &#xa;      &#xa;    &#xa;    &#xa;      &#xa;    &#xa;  &#xa;" style="text;whiteSpace=wrap;html=1;" parent="1" vertex="1">
          <mxGeometry x="680" y="2290" width="30" height="3750" as="geometry" />
        </mxCell>
        <mxCell id="0CMvBawoGPXFjPFOoLp7-181" value="INICIO" style="ellipse;whiteSpace=wrap;html=1;" vertex="1" parent="1">
          <mxGeometry x="1110" y="480" width="90" height="62.5" as="geometry" />
        </mxCell>
        <mxCell id="0CMvBawoGPXFjPFOoLp7-254" style="edgeStyle=orthogonalEdgeStyle;rounded=0;orthogonalLoop=1;jettySize=auto;html=1;exitX=0.5;exitY=0;exitDx=0;exitDy=0;entryX=0;entryY=0.5;entryDx=0;entryDy=0;" edge="1" parent="1" source="0CMvBawoGPXFjPFOoLp7-182" target="0CMvBawoGPXFjPFOoLp7-183">
          <mxGeometry relative="1" as="geometry" />
        </mxCell>
        <mxCell id="0CMvBawoGPXFjPFOoLp7-182" value="1.1 Revisión del estado del arte&amp;nbsp;&lt;div&gt;t=15&lt;/div&gt;" style="rounded=1;fillColor=#fff2cc;whiteSpace=wrap;html=1;" vertex="1" parent="1">
          <mxGeometry x="1230" y="480" width="220" height="60" as="geometry" />
        </mxCell>
        <mxCell id="0CMvBawoGPXFjPFOoLp7-183" value="1.2 Análisis de métricas Prometheus&lt;div&gt;t=20&lt;/div&gt;" style="rounded=1;fillColor=#fff2cc;whiteSpace=wrap;html=1;" vertex="1" parent="1">
          <mxGeometry x="1480" y="380" width="220" height="60" as="geometry" />
        </mxCell>
        <mxCell id="0CMvBawoGPXFjPFOoLp7-184" value="1.3 Definición de requerimientos&amp;nbsp;&lt;div&gt;t=20&lt;/div&gt;" style="rounded=1;fillColor=#fff2cc;whiteSpace=wrap;html=1;" vertex="1" parent="1">
          <mxGeometry x="1480" y="480" width="220" height="60" as="geometry" />
        </mxCell>
        <mxCell id="0CMvBawoGPXFjPFOoLp7-185" value="1.4 Diseño preliminar del sistema&amp;nbsp;&lt;div&gt;t=15&lt;/div&gt;" style="rounded=1;fillColor=#fff2cc;whiteSpace=wrap;html=1;" vertex="1" parent="1">
          <mxGeometry x="1750" y="480" width="220" height="60" as="geometry" />
        </mxCell>
        <mxCell id="0CMvBawoGPXFjPFOoLp7-186" value="2.1 Recolección de métricas&lt;div&gt;t=20&lt;/div&gt;" style="rounded=1;fillColor=#dae8fc;whiteSpace=wrap;html=1;" vertex="1" parent="1">
          <mxGeometry x="1750" y="590" width="220" height="60" as="geometry" />
        </mxCell>
        <mxCell id="0CMvBawoGPXFjPFOoLp7-187" value="2.2 Preprocesamiento y normalización t=25" style="rounded=1;fillColor=#dae8fc;whiteSpace=wrap;html=1;" vertex="1" parent="1">
          <mxGeometry x="1480" y="590" width="220" height="60" as="geometry" />
        </mxCell>
        <mxCell id="0CMvBawoGPXFjPFOoLp7-188" value="2.3 Ingeniería de variables&lt;div&gt;&amp;nbsp;t=20&lt;/div&gt;" style="rounded=1;fillColor=#dae8fc;whiteSpace=wrap;html=1;" vertex="1" parent="1">
          <mxGeometry x="1230" y="590" width="220" height="60" as="geometry" />
        </mxCell>
        <mxCell id="0CMvBawoGPXFjPFOoLp7-189" value="2.4 Ventanas deslizantes&amp;nbsp;&lt;div&gt;t=20&lt;/div&gt;" style="rounded=1;fillColor=#dae8fc;whiteSpace=wrap;html=1;" vertex="1" parent="1">
          <mxGeometry x="1230" y="700" width="220" height="60" as="geometry" />
        </mxCell>
        <mxCell id="0CMvBawoGPXFjPFOoLp7-190" value="2.5 Validación con datos históricos&amp;nbsp;&lt;div&gt;t=15&lt;/div&gt;" style="rounded=1;fillColor=#dae8fc;whiteSpace=wrap;html=1;" vertex="1" parent="1">
          <mxGeometry x="1480" y="700" width="220" height="60" as="geometry" />
        </mxCell>
        <mxCell id="0CMvBawoGPXFjPFOoLp7-191" value="3.1 Arquitectura LSTM Autoencoder&amp;nbsp;&lt;div&gt;t=20&lt;/div&gt;" style="rounded=1;fillColor=#e1d5e7;whiteSpace=wrap;html=1;" vertex="1" parent="1">
          <mxGeometry x="1750" y="700" width="220" height="60" as="geometry" />
        </mxCell>
        <mxCell id="0CMvBawoGPXFjPFOoLp7-192" value="3.2 Implementación del modelo&amp;nbsp;&lt;div&gt;t=30&lt;/div&gt;" style="rounded=1;fillColor=#e1d5e7;whiteSpace=wrap;html=1;" vertex="1" parent="1">
          <mxGeometry x="1750" y="800" width="220" height="60" as="geometry" />
        </mxCell>
        <mxCell id="0CMvBawoGPXFjPFOoLp7-193" value="3.3 Preparación de datos&amp;nbsp;&lt;div&gt;t=20&lt;/div&gt;" style="rounded=1;fillColor=#e1d5e7;whiteSpace=wrap;html=1;" vertex="1" parent="1">
          <mxGeometry x="1480" y="800" width="220" height="60" as="geometry" />
        </mxCell>
        <mxCell id="0CMvBawoGPXFjPFOoLp7-194" value="3.4 Entrenamiento y tuning&amp;nbsp;&lt;div&gt;t=45&lt;/div&gt;" style="rounded=1;fillColor=#e1d5e7;whiteSpace=wrap;html=1;" vertex="1" parent="1">
          <mxGeometry x="1230" y="800" width="220" height="60" as="geometry" />
        </mxCell>
        <mxCell id="0CMvBawoGPXFjPFOoLp7-253" style="edgeStyle=orthogonalEdgeStyle;rounded=0;orthogonalLoop=1;jettySize=auto;html=1;exitX=0;exitY=0.5;exitDx=0;exitDy=0;entryX=0;entryY=0.5;entryDx=0;entryDy=0;" edge="1" parent="1" source="0CMvBawoGPXFjPFOoLp7-195" target="0CMvBawoGPXFjPFOoLp7-201">
          <mxGeometry relative="1" as="geometry" />
        </mxCell>
        <mxCell id="0CMvBawoGPXFjPFOoLp7-195" value="3.5 Evaluación del desempeño&amp;nbsp;&lt;div&gt;t=35&lt;/div&gt;" style="rounded=1;fillColor=#e1d5e7;whiteSpace=wrap;html=1;" vertex="1" parent="1">
          <mxGeometry x="1230" y="890" width="220" height="60" as="geometry" />
        </mxCell>
        <mxCell id="0CMvBawoGPXFjPFOoLp7-196" value="4.1 Mecanismo de alerta&amp;nbsp;&lt;div&gt;t=25&lt;/div&gt;" style="rounded=1;fillColor=#f8cecc;whiteSpace=wrap;html=1;" vertex="1" parent="1">
          <mxGeometry x="1750" y="890" width="220" height="60" as="geometry" />
        </mxCell>
        <mxCell id="0CMvBawoGPXFjPFOoLp7-251" style="edgeStyle=orthogonalEdgeStyle;rounded=0;orthogonalLoop=1;jettySize=auto;html=1;exitX=0.5;exitY=1;exitDx=0;exitDy=0;entryX=0.5;entryY=0;entryDx=0;entryDy=0;fillColor=#e51400;strokeColor=#B20000;" edge="1" parent="1" source="0CMvBawoGPXFjPFOoLp7-197" target="0CMvBawoGPXFjPFOoLp7-199">
          <mxGeometry relative="1" as="geometry">
            <mxPoint x="1860.166666666667" y="970" as="targetPoint" />
          </mxGeometry>
        </mxCell>
        <mxCell id="0CMvBawoGPXFjPFOoLp7-197" value="4.2 Integración con Opsgenie&amp;nbsp;&lt;div&gt;t=20&lt;/div&gt;" style="rounded=1;fillColor=#f8cecc;whiteSpace=wrap;html=1;" vertex="1" parent="1">
          <mxGeometry x="1480" y="980" width="220" height="60" as="geometry" />
        </mxCell>
        <mxCell id="0CMvBawoGPXFjPFOoLp7-252" style="edgeStyle=orthogonalEdgeStyle;rounded=0;orthogonalLoop=1;jettySize=auto;html=1;exitX=0;exitY=0.5;exitDx=0;exitDy=0;entryX=1;entryY=0.5;entryDx=0;entryDy=0;fillColor=#e51400;strokeColor=#B20000;" edge="1" parent="1" source="0CMvBawoGPXFjPFOoLp7-198" target="0CMvBawoGPXFjPFOoLp7-199">
          <mxGeometry relative="1" as="geometry" />
        </mxCell>
        <mxCell id="0CMvBawoGPXFjPFOoLp7-198" value="4.3 Enlaces a Grafana&amp;nbsp;&lt;div&gt;t=15&lt;/div&gt;" style="rounded=1;fillColor=#f8cecc;whiteSpace=wrap;html=1;" vertex="1" parent="1">
          <mxGeometry x="1750" y="1080" width="220" height="60" as="geometry" />
        </mxCell>
        <mxCell id="0CMvBawoGPXFjPFOoLp7-199" value="4.4 Pruebas de integración&amp;nbsp;&lt;div&gt;t=30&lt;/div&gt;" style="rounded=1;fillColor=#f8cecc;whiteSpace=wrap;html=1;" vertex="1" parent="1">
          <mxGeometry x="1480" y="1080" width="220" height="60" as="geometry" />
        </mxCell>
        <mxCell id="0CMvBawoGPXFjPFOoLp7-200" value="5.1 Validación funcional&amp;nbsp;&lt;div&gt;t=25&lt;/div&gt;" style="rounded=1;fillColor=#d5e8d4;whiteSpace=wrap;html=1;" vertex="1" parent="1">
          <mxGeometry x="1220" y="1080" width="220" height="60" as="geometry" />
        </mxCell>
        <mxCell id="0CMvBawoGPXFjPFOoLp7-201" value="5.2 Informe de resultados&amp;nbsp;&lt;div&gt;t=20&lt;/div&gt;" style="rounded=1;fillColor=#d5e8d4;whiteSpace=wrap;html=1;" vertex="1" parent="1">
          <mxGeometry x="1220" y="1180" width="220" height="60" as="geometry" />
        </mxCell>
        <mxCell id="0CMvBawoGPXFjPFOoLp7-202" value="5.3 Memoria técnica&amp;nbsp;&lt;div&gt;t=80&lt;/div&gt;" style="rounded=1;fillColor=#d5e8d4;whiteSpace=wrap;html=1;" vertex="1" parent="1">
          <mxGeometry x="1480" y="1180" width="220" height="60" as="geometry" />
        </mxCell>
        <mxCell id="0CMvBawoGPXFjPFOoLp7-203" value="5.4 Documentación final&amp;nbsp;&lt;div&gt;t=40&lt;/div&gt;" style="rounded=1;fillColor=#d5e8d4;whiteSpace=wrap;html=1;" vertex="1" parent="1">
          <mxGeometry x="1750" y="1180" width="220" height="60" as="geometry" />
        </mxCell>
        <mxCell id="0CMvBawoGPXFjPFOoLp7-204" value="FIN" style="ellipse;whiteSpace=wrap;html=1;" vertex="1" parent="1">
          <mxGeometry x="1990" y="1180" width="80" height="60" as="geometry" />
        </mxCell>
        <mxCell id="0CMvBawoGPXFjPFOoLp7-205" style="endArrow=block;html=1;fillColor=#e51400;strokeColor=#B20000;" edge="1" parent="1" source="0CMvBawoGPXFjPFOoLp7-181" target="0CMvBawoGPXFjPFOoLp7-182">
          <mxGeometry relative="1" as="geometry" />
        </mxCell>
        <mxCell id="0CMvBawoGPXFjPFOoLp7-207" style="endArrow=block;html=1;fillColor=#e51400;strokeColor=#B20000;" edge="1" parent="1" source="0CMvBawoGPXFjPFOoLp7-183" target="0CMvBawoGPXFjPFOoLp7-184">
          <mxGeometry relative="1" as="geometry" />
        </mxCell>
        <mxCell id="0CMvBawoGPXFjPFOoLp7-208" style="endArrow=block;html=1;fillColor=#e51400;strokeColor=#B20000;" edge="1" parent="1" source="0CMvBawoGPXFjPFOoLp7-184" target="0CMvBawoGPXFjPFOoLp7-185">
          <mxGeometry relative="1" as="geometry" />
        </mxCell>
        <mxCell id="0CMvBawoGPXFjPFOoLp7-209" style="endArrow=block;html=1;fillColor=#e51400;strokeColor=#B20000;" edge="1" parent="1" source="0CMvBawoGPXFjPFOoLp7-185" target="0CMvBawoGPXFjPFOoLp7-186">
          <mxGeometry relative="1" as="geometry" />
        </mxCell>
        <mxCell id="0CMvBawoGPXFjPFOoLp7-210" style="endArrow=block;html=1;fillColor=#e51400;strokeColor=#B20000;" edge="1" parent="1" source="0CMvBawoGPXFjPFOoLp7-186" target="0CMvBawoGPXFjPFOoLp7-187">
          <mxGeometry relative="1" as="geometry" />
        </mxCell>
        <mxCell id="0CMvBawoGPXFjPFOoLp7-211" style="endArrow=block;html=1;fillColor=#e51400;strokeColor=#B20000;" edge="1" parent="1" source="0CMvBawoGPXFjPFOoLp7-187" target="0CMvBawoGPXFjPFOoLp7-188">
          <mxGeometry relative="1" as="geometry" />
        </mxCell>
        <mxCell id="0CMvBawoGPXFjPFOoLp7-212" style="endArrow=block;html=1;fillColor=#e51400;strokeColor=#B20000;" edge="1" parent="1" source="0CMvBawoGPXFjPFOoLp7-188" target="0CMvBawoGPXFjPFOoLp7-189">
          <mxGeometry relative="1" as="geometry" />
        </mxCell>
        <mxCell id="0CMvBawoGPXFjPFOoLp7-213" style="endArrow=block;html=1;fillColor=#e51400;strokeColor=#B20000;" edge="1" parent="1" source="0CMvBawoGPXFjPFOoLp7-189" target="0CMvBawoGPXFjPFOoLp7-190">
          <mxGeometry relative="1" as="geometry" />
        </mxCell>
        <mxCell id="0CMvBawoGPXFjPFOoLp7-214" style="endArrow=block;html=1;fillColor=#e51400;strokeColor=#B20000;" edge="1" parent="1" source="0CMvBawoGPXFjPFOoLp7-190" target="0CMvBawoGPXFjPFOoLp7-191">
          <mxGeometry relative="1" as="geometry" />
        </mxCell>
        <mxCell id="0CMvBawoGPXFjPFOoLp7-215" style="endArrow=block;html=1;fillColor=#e51400;strokeColor=#B20000;" edge="1" parent="1" source="0CMvBawoGPXFjPFOoLp7-191" target="0CMvBawoGPXFjPFOoLp7-192">
          <mxGeometry relative="1" as="geometry" />
        </mxCell>
        <mxCell id="0CMvBawoGPXFjPFOoLp7-216" style="endArrow=block;html=1;fillColor=#e51400;strokeColor=#B20000;" edge="1" parent="1" source="0CMvBawoGPXFjPFOoLp7-192" target="0CMvBawoGPXFjPFOoLp7-193">
          <mxGeometry relative="1" as="geometry" />
        </mxCell>
        <mxCell id="0CMvBawoGPXFjPFOoLp7-217" style="endArrow=block;html=1;fillColor=#e51400;strokeColor=#B20000;" edge="1" parent="1" source="0CMvBawoGPXFjPFOoLp7-193" target="0CMvBawoGPXFjPFOoLp7-194">
          <mxGeometry relative="1" as="geometry" />
        </mxCell>
        <mxCell id="0CMvBawoGPXFjPFOoLp7-218" style="endArrow=block;html=1;fillColor=#e51400;strokeColor=#B20000;" edge="1" parent="1" source="0CMvBawoGPXFjPFOoLp7-194" target="0CMvBawoGPXFjPFOoLp7-195">
          <mxGeometry relative="1" as="geometry" />
        </mxCell>
        <mxCell id="0CMvBawoGPXFjPFOoLp7-219" style="endArrow=block;html=1;fillColor=#e51400;strokeColor=#B20000;" edge="1" parent="1" source="0CMvBawoGPXFjPFOoLp7-195" target="0CMvBawoGPXFjPFOoLp7-196">
          <mxGeometry relative="1" as="geometry" />
        </mxCell>
        <mxCell id="0CMvBawoGPXFjPFOoLp7-220" style="endArrow=block;html=1;fillColor=#e51400;strokeColor=#B20000;" edge="1" parent="1" source="0CMvBawoGPXFjPFOoLp7-196" target="0CMvBawoGPXFjPFOoLp7-197">
          <mxGeometry relative="1" as="geometry">
            <Array as="points">
              <mxPoint x="1860" y="1010" />
            </Array>
          </mxGeometry>
        </mxCell>
        <mxCell id="0CMvBawoGPXFjPFOoLp7-223" style="endArrow=block;html=1;fillColor=#e51400;strokeColor=#B20000;" edge="1" parent="1" source="0CMvBawoGPXFjPFOoLp7-199" target="0CMvBawoGPXFjPFOoLp7-200">
          <mxGeometry relative="1" as="geometry" />
        </mxCell>
        <mxCell id="0CMvBawoGPXFjPFOoLp7-224" style="endArrow=block;html=1;fillColor=#e51400;strokeColor=#B20000;" edge="1" parent="1" source="0CMvBawoGPXFjPFOoLp7-200" target="0CMvBawoGPXFjPFOoLp7-201">
          <mxGeometry relative="1" as="geometry" />
        </mxCell>
        <mxCell id="0CMvBawoGPXFjPFOoLp7-225" style="endArrow=block;html=1;fillColor=#e51400;strokeColor=#B20000;" edge="1" parent="1" source="0CMvBawoGPXFjPFOoLp7-201" target="0CMvBawoGPXFjPFOoLp7-202">
          <mxGeometry relative="1" as="geometry" />
        </mxCell>
        <mxCell id="0CMvBawoGPXFjPFOoLp7-226" style="endArrow=block;html=1;fillColor=#e51400;strokeColor=#B20000;" edge="1" parent="1" source="0CMvBawoGPXFjPFOoLp7-202" target="0CMvBawoGPXFjPFOoLp7-203">
          <mxGeometry relative="1" as="geometry" />
        </mxCell>
        <mxCell id="0CMvBawoGPXFjPFOoLp7-227" style="endArrow=block;html=1;" edge="1" parent="1" source="0CMvBawoGPXFjPFOoLp7-203" target="0CMvBawoGPXFjPFOoLp7-204">
          <mxGeometry relative="1" as="geometry" />
        </mxCell>
        <mxCell id="0CMvBawoGPXFjPFOoLp7-228" style="endArrow=block;html=1;fillColor=#e51400;strokeColor=#B20000;" edge="1" parent="1" source="0CMvBawoGPXFjPFOoLp7-203" target="0CMvBawoGPXFjPFOoLp7-204">
          <mxGeometry relative="1" as="geometry" />
        </mxCell>
        <mxCell id="0CMvBawoGPXFjPFOoLp7-230" style="edgeStyle=orthogonalEdgeStyle;rounded=0;html=1;fillColor=#e51400;strokeColor=#B20000;" edge="1" parent="1" source="0CMvBawoGPXFjPFOoLp7-182" target="0CMvBawoGPXFjPFOoLp7-184">
          <mxGeometry relative="1" as="geometry" />
        </mxCell>
        <mxCell id="0CMvBawoGPXFjPFOoLp7-231" style="edgeStyle=orthogonalEdgeStyle;rounded=0;html=1;strokeColor=#999999;" edge="1" parent="1" source="0CMvBawoGPXFjPFOoLp7-188">
          <mxGeometry relative="1" as="geometry" />
        </mxCell>
        <mxCell id="0CMvBawoGPXFjPFOoLp7-237" style="edgeStyle=orthogonalEdgeStyle;rounded=0;html=1;strokeColor=#999999;" edge="1" parent="1" source="0CMvBawoGPXFjPFOoLp7-200">
          <mxGeometry relative="1" as="geometry" />
        </mxCell>
        <mxCell id="0CMvBawoGPXFjPFOoLp7-244" value="" style="endArrow=classic;html=1;rounded=0;exitX=0.5;exitY=1;exitDx=0;exitDy=0;entryX=0.5;entryY=0;entryDx=0;entryDy=0;fillColor=#e51400;strokeColor=#B20000;" edge="1" parent="1" source="0CMvBawoGPXFjPFOoLp7-196" target="0CMvBawoGPXFjPFOoLp7-198">
          <mxGeometry width="50" height="50" relative="1" as="geometry">
            <mxPoint x="1610" y="1060" as="sourcePoint" />
            <mxPoint x="1660" y="1010" as="targetPoint" />
          </mxGeometry>
        </mxCell>
      </root>
    </mxGraphModel>
  </diagram>
</mxfile>
